<svg xmlns="http://www.w3.org/2000/svg" width="480" height="480" fill="none"><g clip-path="url(#a)"><path fill="#34A853" d="M321.751 136.914a81.967 81.967 0 0 0-1.41-7.136 82.71 82.71 0 0 0-6.945-18.519 83.805 83.805 0 0 0-5.985-9.812 82.754 82.754 0 0 0-9.038-10.7 82.696 82.696 0 0 0-14.552-11.592c.032-.053.06-.109.092-.161 1.654-2.873 3.312-5.742 4.966-8.615l4.855-8.414c1.163-2.013 2.325-4.03 3.484-6.043a7.619 7.619 0 0 0 .424-6.75 7.49 7.49 0 0 0-3.089-3.564 7.575 7.575 0 0 0-3.208-1.037 7.619 7.619 0 0 0-2.582.225 7.523 7.523 0 0 0-4.583 3.52c-1.162 2.013-2.325 4.03-3.484 6.043l-4.854 8.414c-1.655 2.873-3.313 5.742-4.967 8.615-.18.313-.364.626-.543.944-.252-.1-.5-.201-.752-.297-9.122-3.496-19.019-5.409-29.363-5.409-.284 0-.564 0-.847.004a81.91 81.91 0 0 0-26.28 4.585c-.954.333-1.897.687-2.832 1.057-.168-.294-.34-.587-.508-.88-1.654-2.873-3.312-5.742-4.966-8.615l-4.855-8.414a3701.7 3701.7 0 0 1-3.484-6.043 7.523 7.523 0 0 0-7.164-3.745 7.464 7.464 0 0 0-3.209 1.037 7.523 7.523 0 0 0-3.428 4.564 7.619 7.619 0 0 0 .763 5.75c1.163 2.013 2.325 4.03 3.484 6.043l4.855 8.414c1.654 2.873 3.312 5.742 4.966 8.615.012.024.028.048.04.072a82.932 82.932 0 0 0-9.509 6.923 83.314 83.314 0 0 0-14.221 15.462 82.86 82.86 0 0 0-14.18 34.463c-.056.334-.108.671-.16 1.005a83.004 83.004 0 0 0-.471 3.628h164a83.005 83.005 0 0 0-.472-3.628l.012-.009Z"/><path fill="#202124" d="M282.87 117.755c3.281-2.195 3.758-7.275 1.065-11.345s-7.537-5.589-10.818-3.394c-3.281 2.196-3.758 7.275-1.065 11.345s7.537 5.59 10.818 3.394ZM208.512 114.376c2.693-4.07 2.216-9.15-1.065-11.345-3.281-2.196-8.124-.676-10.818 3.394-2.693 4.07-2.216 9.149 1.065 11.345 3.281 2.195 8.125.676 10.818-3.394Z"/></g><rect width="256" height="256" x="112.223" y="141.748" fill="#fff" stroke="#AECBFA" stroke-width="4" rx="28"/><path fill="#4285F4" d="M252.332 236.818c-16.431-16.418-16.444-43.049-.03-59.483 16.414-16.435 43.041-16.448 59.472-.031l20.894 20.878c16.431 16.418 16.444 43.049.03 59.483-16.414 16.435-43.041 16.448-59.471.031l-20.895-20.878Z"/><rect width="105" height="105" x="135" y="165" fill="#AECBFA" rx="20"/><rect width="210" height="105" x="135" y="270" fill="#34A853" rx="52.5"/><circle cx="187.5" cy="322.5" r="52.5" fill="#C6FF00"/><defs><clipPath id="a"><path fill="#fff" d="M158.223 44.547h164v96h-164z"/></clipPath></defs></svg>